# xmcd
#
# Track frame offsets:
#	150
#	13521
#	27529
#	31438
#	46306
#	69652
#	83385
#	87294
#
# Disc length: 1224 seconds
#
# Revision: 0
# Processed by: cddbd v1.5.2PL0 Copyright (c) Steve Scherf et al.
# Submitted via: audiograbber 1.83.01
#
DISCID=5904c608
DTITLE=The Beaumonts - Let's Get Drunk And Other Country Songs
DYEAR=2008
DGENRE=Country
TTITLE0=Let's Get Drunk
TTITLE1=It Ain't What It Used To Be
TTITLE2=Gene Messer
TTITLE3=I Got Money
TTITLE4=Chuck
TTITLE5=Lord Help Me
TTITLE6=GMF '88
TTITLE7=When I Picked You
EXTD=
EXTT0=
EXTT1=
EXTT2=
EXTT3=
EXTT4=
EXTT5=
EXTT6=
EXTT7=
PLAYORDER=
